G75*
%MOIN*%
%OFA0B0*%
%FSLAX24Y24*%
%IPPOS*%
%LPD*%
%AMOC8*
5,1,8,0,0,1.08239X$1,22.5*
%
%ADD10C,0.0000*%
%ADD11R,0.0493X0.0611*%
%ADD12R,0.0690X0.1084*%
%ADD13C,0.0775*%
%ADD14C,0.0775*%
%ADD15C,0.0815*%
%ADD16C,0.0769*%
%ADD17C,0.1320*%
%ADD18R,0.0532X0.0532*%
%ADD19R,0.1438X0.0690*%
%ADD20C,0.0847*%
%ADD21OC8,0.0775*%
%ADD22C,0.0925*%
%ADD23C,0.0729*%
%ADD24OC8,0.0729*%
%ADD25R,0.0800X0.0800*%
%ADD26C,0.0800*%
%ADD27R,0.0572X0.0651*%
%ADD28R,0.0572X0.0690*%
%ADD29C,0.0965*%
%ADD30R,0.0611X0.0493*%
%ADD31C,0.1241*%
%ADD32R,0.0651X0.0572*%
%ADD33C,0.0532*%
D10*
X006933Y007050D02*
X046928Y007050D01*
X046928Y030796D01*
X006933Y030796D01*
X006933Y007050D01*
X012303Y029800D02*
X012305Y029850D01*
X012311Y029900D01*
X012321Y029949D01*
X012335Y029997D01*
X012352Y030044D01*
X012373Y030089D01*
X012398Y030133D01*
X012426Y030174D01*
X012458Y030213D01*
X012492Y030250D01*
X012529Y030284D01*
X012569Y030314D01*
X012611Y030341D01*
X012655Y030365D01*
X012701Y030386D01*
X012748Y030402D01*
X012796Y030415D01*
X012846Y030424D01*
X012895Y030429D01*
X012946Y030430D01*
X012996Y030427D01*
X013045Y030420D01*
X013094Y030409D01*
X013142Y030394D01*
X013188Y030376D01*
X013233Y030354D01*
X013276Y030328D01*
X013317Y030299D01*
X013356Y030267D01*
X013392Y030232D01*
X013424Y030194D01*
X013454Y030154D01*
X013481Y030111D01*
X013504Y030067D01*
X013523Y030021D01*
X013539Y029973D01*
X013551Y029924D01*
X013559Y029875D01*
X013563Y029825D01*
X013563Y029775D01*
X013559Y029725D01*
X013551Y029676D01*
X013539Y029627D01*
X013523Y029579D01*
X013504Y029533D01*
X013481Y029489D01*
X013454Y029446D01*
X013424Y029406D01*
X013392Y029368D01*
X013356Y029333D01*
X013317Y029301D01*
X013276Y029272D01*
X013233Y029246D01*
X013188Y029224D01*
X013142Y029206D01*
X013094Y029191D01*
X013045Y029180D01*
X012996Y029173D01*
X012946Y029170D01*
X012895Y029171D01*
X012846Y029176D01*
X012796Y029185D01*
X012748Y029198D01*
X012701Y029214D01*
X012655Y029235D01*
X012611Y029259D01*
X012569Y029286D01*
X012529Y029316D01*
X012492Y029350D01*
X012458Y029387D01*
X012426Y029426D01*
X012398Y029467D01*
X012373Y029511D01*
X012352Y029556D01*
X012335Y029603D01*
X012321Y029651D01*
X012311Y029700D01*
X012305Y029750D01*
X012303Y029800D01*
X044303Y010800D02*
X044305Y010850D01*
X044311Y010900D01*
X044321Y010949D01*
X044335Y010997D01*
X044352Y011044D01*
X044373Y011089D01*
X044398Y011133D01*
X044426Y011174D01*
X044458Y011213D01*
X044492Y011250D01*
X044529Y011284D01*
X044569Y011314D01*
X044611Y011341D01*
X044655Y011365D01*
X044701Y011386D01*
X044748Y011402D01*
X044796Y011415D01*
X044846Y011424D01*
X044895Y011429D01*
X044946Y011430D01*
X044996Y011427D01*
X045045Y011420D01*
X045094Y011409D01*
X045142Y011394D01*
X045188Y011376D01*
X045233Y011354D01*
X045276Y011328D01*
X045317Y011299D01*
X045356Y011267D01*
X045392Y011232D01*
X045424Y011194D01*
X045454Y011154D01*
X045481Y011111D01*
X045504Y011067D01*
X045523Y011021D01*
X045539Y010973D01*
X045551Y010924D01*
X045559Y010875D01*
X045563Y010825D01*
X045563Y010775D01*
X045559Y010725D01*
X045551Y010676D01*
X045539Y010627D01*
X045523Y010579D01*
X045504Y010533D01*
X045481Y010489D01*
X045454Y010446D01*
X045424Y010406D01*
X045392Y010368D01*
X045356Y010333D01*
X045317Y010301D01*
X045276Y010272D01*
X045233Y010246D01*
X045188Y010224D01*
X045142Y010206D01*
X045094Y010191D01*
X045045Y010180D01*
X044996Y010173D01*
X044946Y010170D01*
X044895Y010171D01*
X044846Y010176D01*
X044796Y010185D01*
X044748Y010198D01*
X044701Y010214D01*
X044655Y010235D01*
X044611Y010259D01*
X044569Y010286D01*
X044529Y010316D01*
X044492Y010350D01*
X044458Y010387D01*
X044426Y010426D01*
X044398Y010467D01*
X044373Y010511D01*
X044352Y010556D01*
X044335Y010603D01*
X044321Y010651D01*
X044311Y010700D01*
X044305Y010750D01*
X044303Y010800D01*
D11*
X039577Y013050D03*
X038790Y013050D03*
X036827Y012800D03*
X036040Y012800D03*
X033352Y013025D03*
X032565Y013025D03*
X031327Y013050D03*
X030540Y013050D03*
X023327Y013050D03*
X022540Y013050D03*
X020827Y012800D03*
X020040Y012800D03*
X017327Y019425D03*
X016540Y019425D03*
X020790Y021800D03*
X021577Y021800D03*
X023040Y022050D03*
X023827Y022050D03*
X025040Y022050D03*
X025827Y022050D03*
X028540Y021800D03*
X029327Y021800D03*
X030980Y022149D03*
X031767Y022149D03*
X035040Y021845D03*
X035827Y021845D03*
X035827Y022883D03*
X035040Y022883D03*
X035040Y023862D03*
X035827Y023862D03*
X020327Y027800D03*
X019540Y027800D03*
X019540Y028800D03*
X020327Y028800D03*
X016827Y028550D03*
X016040Y028550D03*
D12*
X037233Y024319D03*
X037233Y022901D03*
X039233Y022901D03*
X039233Y024319D03*
X041233Y024319D03*
X041233Y022901D03*
D13*
X041183Y025987D03*
X040183Y025987D03*
X039183Y025987D03*
X038183Y025987D03*
X037183Y025987D03*
X036183Y025987D03*
X036183Y026987D03*
X037183Y026987D03*
X038183Y026987D03*
X039183Y026987D03*
X040183Y026987D03*
X041183Y026987D03*
X042183Y026988D03*
X042183Y027988D03*
X042183Y028988D03*
X041183Y027987D03*
X040183Y027987D03*
X039183Y027987D03*
X038183Y027987D03*
X037183Y027987D03*
X036183Y027987D03*
X033183Y027800D03*
X032183Y027800D03*
X031183Y027800D03*
X030183Y027800D03*
X030183Y026800D03*
X031183Y026800D03*
X032183Y026800D03*
X033183Y026800D03*
X025183Y026800D03*
X024183Y026800D03*
X023183Y026800D03*
X022183Y026800D03*
X022183Y027800D03*
X023183Y027800D03*
X024183Y027800D03*
X025183Y027800D03*
X025433Y018800D03*
X024433Y018800D03*
X023433Y018800D03*
X022433Y018800D03*
X022433Y017800D03*
X023433Y017800D03*
X024433Y017800D03*
X025433Y017800D03*
X030433Y017800D03*
X031433Y017800D03*
X032433Y017800D03*
X033433Y017800D03*
X033433Y018800D03*
X032433Y018800D03*
X031433Y018800D03*
X030433Y018800D03*
X037433Y018800D03*
X038433Y018800D03*
X039433Y018800D03*
X040433Y018800D03*
X040433Y017800D03*
X039433Y017800D03*
X038433Y017800D03*
X037433Y017800D03*
X042183Y025988D03*
X026621Y009550D03*
X025621Y009550D03*
X024621Y009550D03*
X023621Y009550D03*
X023621Y008550D03*
X024621Y008550D03*
X025621Y008550D03*
X026621Y008550D03*
X026621Y007550D03*
X025621Y007550D03*
X024621Y007550D03*
X023621Y007550D03*
X029683Y007862D03*
X030683Y007862D03*
X031683Y007862D03*
X032683Y007862D03*
X032683Y008863D03*
X031683Y008863D03*
X030683Y008863D03*
X029683Y008863D03*
D14*
X015541Y019425D02*
X014826Y019425D01*
X014826Y020425D02*
X015541Y020425D01*
X015541Y021425D02*
X014826Y021425D01*
X015183Y024192D02*
X015183Y024907D01*
X016183Y024907D02*
X016183Y024192D01*
X017183Y024192D02*
X017183Y024907D01*
X017183Y026943D02*
X017183Y027657D01*
X016183Y027657D02*
X016183Y026943D01*
X015183Y026943D02*
X015183Y027657D01*
D15*
X024843Y012851D03*
X028843Y012851D03*
X016433Y011400D03*
X012433Y011400D03*
D16*
X019933Y010800D03*
X020933Y010800D03*
X021933Y010800D03*
X022933Y010800D03*
X023933Y010800D03*
X024933Y010800D03*
X026933Y010800D03*
X027933Y010800D03*
X028933Y010800D03*
X029933Y010800D03*
X030933Y010800D03*
X031933Y010800D03*
X032933Y010800D03*
X033933Y010800D03*
X035933Y010800D03*
X036933Y010800D03*
X037933Y010800D03*
X038933Y010800D03*
X039933Y010800D03*
X040933Y010800D03*
X041933Y010800D03*
X042933Y010800D03*
X043933Y012800D03*
X044933Y012800D03*
X044933Y013800D03*
X043933Y013800D03*
X043933Y014800D03*
X044933Y014800D03*
X044933Y015800D03*
X043933Y015800D03*
X043933Y016800D03*
X043933Y017800D03*
X044933Y017800D03*
X044933Y016800D03*
X044933Y018800D03*
X043933Y018800D03*
X043933Y019800D03*
X043933Y020800D03*
X044933Y020800D03*
X044933Y019800D03*
X044933Y021800D03*
X043933Y021800D03*
X043933Y022800D03*
X043933Y023800D03*
X044933Y023800D03*
X044933Y022800D03*
X044933Y024800D03*
X043933Y024800D03*
X043933Y025800D03*
X043933Y026800D03*
X044933Y026800D03*
X044933Y025800D03*
X044933Y027800D03*
X043933Y027800D03*
X043933Y028800D03*
X044933Y028800D03*
X044933Y029800D03*
X043933Y029800D03*
X040933Y029800D03*
X039933Y029800D03*
X038933Y029800D03*
X037933Y029800D03*
X036933Y029800D03*
X035933Y029800D03*
X034933Y029800D03*
X033933Y029800D03*
X031933Y029800D03*
X030933Y029800D03*
X029933Y029800D03*
X028933Y029800D03*
X027933Y029800D03*
X026933Y029800D03*
X025933Y029800D03*
X024933Y029800D03*
X023333Y029800D03*
X022333Y029800D03*
X021333Y029800D03*
X020333Y029800D03*
X019333Y029800D03*
X018333Y029800D03*
X017333Y029800D03*
X016333Y029800D03*
D17*
X012933Y029800D03*
X044933Y010800D03*
D18*
X017347Y020425D03*
X016520Y020425D03*
X014996Y028887D03*
X014996Y029713D03*
X008933Y029713D03*
X008933Y028887D03*
X007933Y028887D03*
X007933Y029713D03*
D19*
X019370Y023800D03*
X021496Y023800D03*
X027620Y023800D03*
X029746Y023800D03*
X020996Y018738D03*
X018870Y018738D03*
X019370Y014800D03*
X021496Y014800D03*
X027370Y014800D03*
X029496Y014800D03*
X035370Y014800D03*
X037496Y014800D03*
D20*
X012577Y017300D02*
X011790Y017300D01*
X011790Y019300D02*
X012577Y019300D01*
X012577Y021300D02*
X011790Y021300D01*
X011790Y023300D02*
X012577Y023300D01*
X012577Y025300D02*
X011790Y025300D01*
X011790Y027300D02*
X012577Y027300D01*
D21*
X023433Y024300D03*
X024433Y024300D03*
X025433Y024300D03*
X025433Y023300D03*
X024433Y023300D03*
X023433Y023300D03*
X031433Y023300D03*
X032433Y023300D03*
X033433Y023300D03*
X033433Y024300D03*
X032433Y024300D03*
X031433Y024300D03*
X031433Y015300D03*
X032433Y015300D03*
X033433Y015300D03*
X033433Y014300D03*
X032433Y014300D03*
X031433Y014300D03*
X025433Y014300D03*
X024433Y014300D03*
X023433Y014300D03*
X023433Y015300D03*
X024433Y015300D03*
X025433Y015300D03*
X018433Y008650D03*
X018433Y007650D03*
X020043Y008185D03*
X021823Y008185D03*
X039433Y014300D03*
X040433Y014300D03*
X041433Y014300D03*
X041433Y015300D03*
X040433Y015300D03*
X039433Y015300D03*
D22*
X010241Y014988D02*
X009376Y014988D01*
X009376Y012988D02*
X010241Y012988D01*
X010241Y010988D02*
X009376Y010988D01*
X009376Y008988D02*
X010241Y008988D01*
D23*
X019433Y011800D03*
X020433Y011800D03*
X021433Y011800D03*
X022433Y011800D03*
X023433Y011800D03*
X024433Y011800D03*
X025433Y011800D03*
X026433Y011800D03*
X027433Y011800D03*
X028433Y011800D03*
X029433Y011800D03*
X030433Y011800D03*
X031433Y011800D03*
X032433Y011800D03*
X033433Y011800D03*
X034433Y011800D03*
X035433Y011800D03*
X036433Y011800D03*
X037433Y011800D03*
X038433Y011800D03*
X039433Y011800D03*
X040433Y011800D03*
X041433Y011800D03*
X042433Y011800D03*
X042433Y016800D03*
X041433Y016800D03*
X040433Y016800D03*
X039433Y016800D03*
X038433Y016800D03*
X037433Y016800D03*
X036433Y016800D03*
X035433Y016800D03*
X034433Y016800D03*
X033433Y016800D03*
X032433Y016800D03*
X031433Y016800D03*
X030433Y016800D03*
X029433Y016800D03*
X028433Y016800D03*
X027433Y016800D03*
X026433Y016800D03*
X025433Y016800D03*
X024433Y016800D03*
X023433Y016800D03*
X022433Y016800D03*
X021433Y016800D03*
X020433Y016800D03*
X019433Y016800D03*
X019183Y020800D03*
X020183Y020800D03*
X021183Y020800D03*
X022183Y020800D03*
X023183Y020800D03*
X024183Y020800D03*
X025183Y020800D03*
X026183Y020800D03*
X027433Y020800D03*
X028433Y020800D03*
X029433Y020800D03*
X030433Y020800D03*
X031433Y020800D03*
X032433Y020800D03*
X033433Y020800D03*
X034433Y020800D03*
X037433Y020800D03*
X038433Y020800D03*
X039433Y020800D03*
X040433Y020800D03*
X041433Y020800D03*
X042433Y020800D03*
X034433Y025800D03*
X033433Y025800D03*
X032433Y025800D03*
X031433Y025800D03*
X030433Y025800D03*
X029433Y025800D03*
X028433Y025800D03*
X027433Y025800D03*
X026183Y025800D03*
X025183Y025800D03*
X024183Y025800D03*
X023183Y025800D03*
X022183Y025800D03*
X021183Y025800D03*
X020183Y025800D03*
X019183Y025800D03*
D24*
X035933Y008863D03*
X036933Y008863D03*
X037933Y008863D03*
X038933Y008863D03*
X039933Y008863D03*
X039933Y007863D03*
X038933Y007863D03*
X037933Y007863D03*
X036933Y007863D03*
X035933Y007863D03*
X042996Y007863D03*
X042996Y008863D03*
X043996Y008863D03*
X044996Y008863D03*
X045996Y008863D03*
X045996Y007863D03*
X044996Y007863D03*
X043996Y007863D03*
D25*
X045933Y012800D03*
D26*
X045933Y013800D03*
X045933Y014800D03*
X045933Y015800D03*
X045933Y016800D03*
X045933Y017800D03*
X045933Y018800D03*
X045933Y019800D03*
X045933Y020800D03*
X045933Y021800D03*
X045933Y022800D03*
X045933Y023800D03*
X045933Y024800D03*
X045933Y025800D03*
X045933Y026800D03*
X045933Y027800D03*
X045933Y028800D03*
X045933Y029800D03*
D27*
X042662Y029863D03*
X041914Y029863D03*
X040851Y028918D03*
X040103Y028918D03*
X039315Y028879D03*
X038567Y028879D03*
X037898Y028879D03*
X037150Y028879D03*
X036126Y028879D03*
X035378Y028879D03*
X019768Y021800D03*
X019099Y021800D03*
X017268Y021425D03*
X016599Y021425D03*
X017849Y028550D03*
X018518Y028550D03*
D28*
X019559Y026800D03*
X020307Y026800D03*
D29*
X019553Y009165D03*
X022313Y009165D03*
D30*
X042933Y021906D03*
X042933Y022694D03*
X042933Y023906D03*
X042933Y024694D03*
X010933Y028906D03*
X010933Y029694D03*
X009933Y029694D03*
X009933Y028906D03*
D31*
X012496Y014950D03*
X013952Y014950D03*
X015488Y014950D03*
X017062Y014950D03*
X016862Y009300D03*
X015288Y009300D03*
X013752Y009300D03*
X012296Y009300D03*
D32*
X034473Y027324D03*
X034473Y028072D03*
D33*
X034933Y024800D03*
X030433Y023050D03*
X029808Y024550D03*
X027808Y021800D03*
X020683Y019550D03*
X019683Y019550D03*
X018683Y019550D03*
X016683Y018550D03*
X018933Y022550D03*
X018683Y025050D03*
X018933Y027300D03*
X014183Y028550D03*
X025808Y028800D03*
X035808Y019675D03*
X037433Y014050D03*
X033773Y013550D03*
X029433Y014050D03*
X027683Y014050D03*
M02*
