%
M48
M72
T01C0.0236
T02C0.0354
T03C0.0394
T04C0.0400
T05C0.0440
T06C0.0472
T07C0.0550
T08C0.0590
T09C0.0669
T10C0.1260
%
T01
X16683Y18550
X18683Y19550
X19683Y19550
X20683Y19550
X18933Y22550
X18683Y25050
X18933Y27300
X14183Y28550
X25808Y28800
X29808Y24550
X30433Y23050
X27808Y21800
X34933Y24800
X35808Y19675
X37433Y14050
X33773Y13550
X29433Y14050
X27683Y14050
T02
X45996Y7863
X45996Y8863
X44996Y8863
X43996Y8863
X42996Y8863
X42996Y7863
X43996Y7863
X44996Y7863
X42433Y11800
X41433Y11800
X40433Y11800
X39433Y11800
X38433Y11800
X37433Y11800
X36433Y11800
X35433Y11800
X34433Y11800
X33433Y11800
X32433Y11800
X31433Y11800
X30433Y11800
X29433Y11800
X28433Y11800
X27433Y11800
X26433Y11800
X25433Y11800
X24433Y11800
X23433Y11800
X22433Y11800
X21433Y11800
X20433Y11800
X19433Y11800
X19433Y16800
X20433Y16800
X21433Y16800
X22433Y16800
X23433Y16800
X24433Y16800
X25433Y16800
X26433Y16800
X27433Y16800
X28433Y16800
X29433Y16800
X30433Y16800
X31433Y16800
X32433Y16800
X33433Y16800
X34433Y16800
X35433Y16800
X36433Y16800
X37433Y16800
X38433Y16800
X39433Y16800
X40433Y16800
X41433Y16800
X42433Y16800
X42433Y20800
X41433Y20800
X40433Y20800
X39433Y20800
X38433Y20800
X37433Y20800
X34433Y20800
X33433Y20800
X32433Y20800
X31433Y20800
X30433Y20800
X29433Y20800
X28433Y20800
X27433Y20800
X26183Y20800
X25183Y20800
X24183Y20800
X23183Y20800
X22183Y20800
X21183Y20800
X20183Y20800
X19183Y20800
X19183Y25800
X20183Y25800
X21183Y25800
X22183Y25800
X23183Y25800
X24183Y25800
X25183Y25800
X26183Y25800
X27433Y25800
X28433Y25800
X29433Y25800
X30433Y25800
X31433Y25800
X32433Y25800
X33433Y25800
X34433Y25800
X35933Y8863
X36933Y8863
X37933Y8863
X38933Y8863
X39933Y8863
X39933Y7863
X38933Y7863
X37933Y7863
X36933Y7863
X35933Y7863
T03
X42933Y10800
X41933Y10800
X40933Y10800
X39933Y10800
X38933Y10800
X37933Y10800
X36933Y10800
X35933Y10800
X33933Y10800
X32933Y10800
X31933Y10800
X30933Y10800
X29933Y10800
X28933Y10800
X27933Y10800
X26933Y10800
X24933Y10800
X23933Y10800
X22933Y10800
X21933Y10800
X20933Y10800
X19933Y10800
X43933Y12800
X44933Y12800
X44933Y13800
X43933Y13800
X43933Y14800
X44933Y14800
X44933Y15800
X43933Y15800
X43933Y16800
X43933Y17800
X44933Y17800
X44933Y16800
X44933Y18800
X43933Y18800
X43933Y19800
X43933Y20800
X44933Y20800
X44933Y19800
X44933Y21800
X43933Y21800
X43933Y22800
X43933Y23800
X44933Y23800
X44933Y22800
X44933Y24800
X43933Y24800
X43933Y25800
X43933Y26800
X44933Y26800
X44933Y25800
X44933Y27800
X43933Y27800
X43933Y28800
X44933Y28800
X44933Y29800
X43933Y29800
X40933Y29800
X39933Y29800
X38933Y29800
X37933Y29800
X36933Y29800
X35933Y29800
X34933Y29800
X33933Y29800
X31933Y29800
X30933Y29800
X29933Y29800
X28933Y29800
X27933Y29800
X26933Y29800
X25933Y29800
X24933Y29800
X23333Y29800
X22333Y29800
X21333Y29800
X20333Y29800
X19333Y29800
X18333Y29800
X17333Y29800
X16333Y29800
T04
X18433Y7650
X18433Y8650
X20043Y8185
X21823Y8185
X23621Y8550
X24621Y8550
X25621Y8550
X26621Y8550
X26621Y7550
X25621Y7550
X24621Y7550
X23621Y7550
X23621Y9550
X24621Y9550
X25621Y9550
X26621Y9550
X29683Y8863
X30683Y8863
X31683Y8863
X32683Y8863
X32683Y7862
X31683Y7862
X30683Y7862
X29683Y7862
X31433Y14300
X32433Y14300
X33433Y14300
X33433Y15300
X32433Y15300
X31433Y15300
X31433Y17800
X30433Y17800
X30433Y18800
X31433Y18800
X32433Y18800
X33433Y18800
X33433Y17800
X32433Y17800
X37433Y17800
X38433Y17800
X39433Y17800
X40433Y17800
X40433Y18800
X39433Y18800
X38433Y18800
X37433Y18800
X39433Y15300
X40433Y15300
X41433Y15300
X41433Y14300
X40433Y14300
X39433Y14300
X45933Y12800
X45933Y13800
X45933Y14800
X45933Y15800
X45933Y16800
X45933Y17800
X45933Y18800
X45933Y19800
X45933Y20800
X45933Y21800
X45933Y22800
X45933Y23800
X45933Y24800
X45933Y25800
X45933Y26800
X45933Y27800
X45933Y28800
X45933Y29800
X42183Y28988
X42183Y27988
X41183Y27987
X40183Y27987
X39183Y27987
X38183Y27987
X37183Y27987
X36183Y27987
X36183Y26987
X37183Y26987
X38183Y26987
X39183Y26987
X40183Y26987
X41183Y26987
X42183Y26988
X42183Y25988
X41183Y25987
X40183Y25987
X39183Y25987
X38183Y25987
X37183Y25987
X36183Y25987
X33433Y24300
X32433Y24300
X31433Y24300
X31433Y23300
X32433Y23300
X33433Y23300
X33183Y26800
X32183Y26800
X31183Y26800
X30183Y26800
X30183Y27800
X31183Y27800
X32183Y27800
X33183Y27800
X25183Y27800
X24183Y27800
X23183Y27800
X22183Y27800
X22183Y26800
X23183Y26800
X24183Y26800
X25183Y26800
X25433Y24300
X24433Y24300
X23433Y24300
X23433Y23300
X24433Y23300
X25433Y23300
X25433Y18800
X24433Y18800
X23433Y18800
X22433Y18800
X22433Y17800
X23433Y17800
X24433Y17800
X25433Y17800
X25433Y15300
X24433Y15300
X23433Y15300
X23433Y14300
X24433Y14300
X25433Y14300
X15183Y19425
X15183Y20425
X15183Y21425
X15183Y24550
X16183Y24550
X17183Y24550
X17183Y27300
X16183Y27300
X15183Y27300
T05
X12433Y11400
X16433Y11400
X24843Y12851
X28843Y12851
T06
X12183Y17300
X12183Y19300
X12183Y21300
X12183Y23300
X12183Y25300
X12183Y27300
T07
X9808Y14988
X9808Y12988
X9808Y10988
X9808Y8988
T08
X19553Y9165
X22313Y9165
T09
X12296Y9300
X13752Y9300
X15288Y9300
X16862Y9300
X17062Y14950
X15488Y14950
X13952Y14950
X12496Y14950
T10
X44933Y10800
X12933Y29800
M30
